<?xml version="1.0" standalone="no"?>
<!DOCTYPE svg PUBLIC "-//W3C//DTD SVG 20010904//EN"
  "http://www.w3.org/TR/2001/REC-SVG-20010904/DTD/svg10.dtd">
<svg height="821.000000pt" preserveAspectRatio="xMidYMid meet"
     version="1.0" viewBox="0 0 468.000000 821.000000" width="468.000000pt"
     xmlns="http://www.w3.org/2000/svg">

  <g fill="#000000"
     stroke="none" transform="translate(0.000000,821.000000) scale(0.100000,-0.100000)">
    <path d="M2881 7659 c-30 -18 -49 -20 -150 -19 -139 1 -309 -13 -371 -30 -41
-11 -49 -11 -98 12 l-54 25 -99 -38 c-55 -22 -116 -39 -137 -39 -94 0 -155
-39 -198 -126 -25 -52 -27 -61 -21 -152 4 -53 14 -128 23 -167 20 -90 31 -498
15 -600 -39 -253 -50 -350 -56 -510 -7 -189 2 -301 31 -383 9 -23 14 -48 11
-55 -12 -37 49 -124 179 -252 61 -60 110 -97 202 -150 67 -38 122 -74 122 -79
0 -15 -90 3 -138 28 -26 13 -75 38 -109 56 -34 17 -68 30 -75 28 -8 -3 0 -12
19 -21 17 -9 70 -46 117 -82 95 -73 120 -85 174 -85 20 0 44 -4 52 -10 23 -15
17 -85 -19 -210 -89 -308 -79 -283 -107 -276 -21 6 -25 4 -20 -11 17 -59 14
-73 -42 -223 -44 -114 -63 -154 -74 -152 -13 2 -15 -6 -11 -41 4 -35 -6 -70
-60 -207 -36 -91 -77 -203 -92 -250 -15 -47 -31 -89 -35 -95 -4 -5 -24 -62
-45 -125 -95 -289 -167 -495 -178 -507 -11 -11 -36 57 -72 197 -20 80 -48 179
-61 220 -32 96 -84 305 -84 333 0 18 11 25 59 41 73 23 165 98 158 128 -4 14
9 33 46 69 41 38 49 51 38 58 -12 8 -10 14 11 39 13 16 31 44 38 62 12 29 11
33 -4 42 -14 8 -16 18 -11 52 6 35 4 44 -10 49 -13 6 -14 10 -4 29 10 19 8 25
-21 49 -24 21 -30 32 -25 48 5 18 1 23 -24 32 -31 11 -33 14 -35 59 -1 17 -7
26 -21 28 -11 1 -29 19 -40 40 -15 27 -27 37 -45 37 -17 0 -29 8 -38 28 -10
20 -20 27 -43 27 -22 0 -32 7 -41 25 -7 16 -19 25 -34 25 -15 0 -24 8 -28 26
-6 22 -11 25 -36 19 -16 -3 -38 -2 -49 4 -16 9 -23 7 -39 -14 -11 -14 -27 -25
-35 -25 -9 0 -25 -19 -36 -45 -11 -25 -27 -45 -35 -45 -10 0 -20 -16 -27 -45
-9 -37 -16 -45 -34 -45 -20 0 -23 -6 -29 -62 -9 -77 -19 -98 -46 -91 -17 5
-20 1 -20 -28 1 -19 7 -52 15 -74 14 -37 14 -41 -5 -53 -19 -14 -19 -15 5 -63
21 -40 23 -52 14 -67 -10 -16 -5 -25 35 -62 25 -23 46 -51 46 -60 0 -11 25
-35 63 -60 34 -23 65 -50 69 -61 7 -17 53 -42 146 -79 40 -16 43 -23 88 -200
19 -74 50 -184 69 -245 19 -60 39 -132 44 -160 5 -27 17 -77 25 -110 9 -32 16
-94 16 -137 0 -79 -10 -114 -67 -238 -61 -133 -203 -493 -203 -516 0 -6 -11
-28 -25 -48 -14 -20 -25 -47 -25 -60 0 -13 -24 -84 -54 -157 -30 -74 -58 -150
-64 -169 -6 -19 -49 -143 -97 -275 -48 -132 -98 -276 -112 -320 -14 -44 -40
-123 -58 -175 -113 -328 -125 -390 -76 -390 34 0 33 -2 146 355 37 116 93 282
125 370 33 88 84 232 115 320 69 199 95 266 109 284 26 34 402 301 423 301 5
0 43 -38 85 -84 77 -84 77 -84 60 -107 -35 -46 -92 -183 -92 -221 0 -5 6 -8
14 -8 12 0 13 -14 9 -75 -5 -65 -4 -75 10 -75 15 0 39 -41 60 -102 4 -10 16
-18 28 -18 12 0 23 -8 26 -20 3 -11 9 -20 13 -20 4 0 12 -11 18 -25 8 -17 20
-25 37 -25 20 0 28 -8 41 -41 15 -36 19 -39 44 -34 22 5 30 1 44 -20 11 -17
23 -24 33 -21 10 4 26 -3 40 -15 19 -19 23 -20 23 -6 0 9 11 24 25 33 19 12
25 25 25 50 0 27 5 36 24 43 19 8 24 19 30 67 5 42 12 61 28 72 18 13 20 21
14 69 -5 43 -3 55 9 59 17 7 11 42 -16 91 -10 17 -15 40 -12 51 6 25 -8 52
-53 102 -19 21 -34 42 -33 47 4 22 -3 33 -33 51 -45 27 -96 35 -218 33 l-105
-2 -80 81 -80 81 25 19 c35 26 186 110 199 110 6 0 23 -23 37 -52 30 -58 124
-162 168 -185 26 -14 31 -14 41 0 9 12 15 13 30 4 25 -14 151 -46 186 -47 14
0 31 6 38 13 8 8 48 12 124 12 108 0 112 1 109 21 -2 18 4 22 46 28 67 9 88
25 72 56 -13 23 -2 39 27 40 20 0 123 50 123 59 0 5 -12 17 -27 27 l-27 17 74
68 c71 65 73 69 61 93 -13 23 -11 28 34 81 l49 56 -17 29 c-17 28 -17 30 13
74 17 25 35 48 41 51 12 8 12 45 -1 45 -27 0 -6 39 34 64 69 43 67 71 -4 78
-27 2 -35 8 -40 28 -5 22 -11 25 -51 25 -24 -1 -62 -3 -84 -5 -39 -5 -40 -4
-40 25 0 29 -1 30 -50 29 -27 -1 -71 -5 -97 -9 l-47 -7 -9 33 c-9 37 -23 40
-109 24 -37 -6 -44 -5 -49 11 -17 48 -40 48 -126 3 l-38 -20 -12 25 c-14 32
-23 32 -62 3 -57 -42 -104 -66 -124 -60 -21 5 -62 -30 -122 -104 -19 -24 -42
-43 -51 -43 -19 0 -79 -79 -105 -137 -9 -21 -22 -65 -29 -98 -10 -52 -14 -60
-32 -57 -16 2 -22 -3 -25 -20 -4 -29 29 -173 48 -210 8 -15 14 -31 14 -37 0
-5 -30 -26 -68 -46 -37 -21 -92 -54 -122 -73 -129 -83 -298 -197 -335 -227
-48 -38 -85 -59 -92 -51 -9 8 73 248 113 333 19 39 34 78 34 87 0 8 9 35 20
58 10 24 40 93 65 153 26 61 55 117 66 127 10 9 16 23 13 31 -3 9 22 91 56
184 54 149 65 170 92 186 29 17 30 18 12 31 -18 13 -17 17 8 92 15 44 35 108
44 144 10 36 35 107 56 159 21 52 38 101 38 109 0 8 14 27 30 42 18 17 26 31
20 35 -17 11 -12 32 44 173 30 75 70 184 89 242 19 58 48 141 65 185 16 44 51
139 77 212 38 105 53 133 72 142 19 9 23 16 17 29 -29 59 20 242 75 279 41 28
113 43 207 43 64 0 84 -5 137 -31 34 -18 73 -40 86 -50 13 -11 28 -19 33 -19
14 0 -69 68 -105 86 -16 9 -25 19 -21 24 5 5 59 16 119 25 181 27 268 45 300
62 17 9 62 32 100 51 127 62 232 131 311 204 110 103 163 179 208 294 21 55
42 108 47 119 4 11 21 58 38 105 68 195 120 330 152 392 32 62 127 206 143
215 69 41 157 149 170 211 9 36 -22 144 -56 199 -33 55 -174 178 -243 213 -65
33 -123 41 -174 25 -16 -5 -26 4 -54 48 l-35 54 14 59 c19 83 17 115 -10 146
-48 54 -90 68 -211 68 -137 1 -230 22 -360 81 -22 10 -56 23 -77 29 -20 6 -49
23 -64 37 -61 56 -160 70 -223 32z"/>
    <path d="M2960 4835 c13 -14 26 -25 28 -25 3 0 -5 11 -18 25 -13 14 -26 25
-28 25 -3 0 5 -11 18 -25z"/>
  </g>
</svg>
