<?xml version="1.0" standalone="no"?>
<!DOCTYPE svg PUBLIC "-//W3C//DTD SVG 20010904//EN"
  "http://www.w3.org/TR/2001/REC-SVG-20010904/DTD/svg10.dtd">
<svg height="1640.000000pt" preserveAspectRatio="xMidYMid meet"
     version="1.0" viewBox="0 0 1640.000000 1640.000000" width="1640.000000pt"
     xmlns="http://www.w3.org/2000/svg">

  <g fill="#000000"
     stroke="none" transform="translate(0.000000,1640.000000) scale(0.100000,-0.100000)">
    <path d="M14601 11089 c-30 -18 -49 -20 -150 -19 -139 1 -309 -13 -371 -30
-41 -11 -49 -11 -98 12 l-54 25 -99 -38 c-55 -22 -116 -39 -137 -39 -94 0
-155 -39 -198 -126 -25 -52 -27 -61 -21 -152 4 -53 14 -128 23 -167 20 -90 31
-498 15 -600 -39 -253 -50 -350 -56 -510 -7 -186 2 -301 30 -380 8 -22 14 -49
13 -60 -2 -38 30 -91 113 -183 94 -106 154 -153 292 -232 53 -30 97 -59 97
-64 0 -15 -90 3 -138 28 -26 13 -75 38 -109 56 -34 17 -68 30 -75 28 -8 -3 0
-12 19 -21 17 -9 70 -46 117 -82 95 -73 120 -85 174 -85 20 0 44 -4 52 -10 23
-15 17 -85 -19 -210 -89 -308 -79 -283 -107 -276 -21 6 -25 4 -20 -11 17 -59
14 -73 -42 -223 -44 -114 -63 -154 -74 -152 -13 2 -15 -6 -11 -41 4 -36 -6
-69 -60 -207 -36 -91 -78 -203 -93 -250 -14 -47 -30 -89 -34 -95 -4 -5 -24
-62 -45 -125 -95 -289 -167 -495 -178 -507 -11 -11 -36 57 -72 197 -20 80 -48
179 -61 220 -32 96 -84 305 -84 333 0 18 11 25 59 41 73 23 165 98 158 128 -4
14 9 33 46 69 41 38 49 51 38 58 -12 8 -10 14 11 39 13 16 31 44 38 62 12 29
11 33 -4 42 -14 8 -16 18 -11 47 4 28 2 41 -9 50 -12 10 -13 17 -4 34 9 18 6
25 -22 48 -24 21 -30 32 -25 48 5 18 1 23 -24 32 -31 11 -33 14 -35 59 -1 17
-7 26 -21 28 -11 1 -29 19 -40 40 -15 27 -27 37 -45 37 -17 0 -29 8 -38 28
-10 20 -20 27 -43 27 -22 0 -32 7 -41 25 -7 16 -19 25 -34 25 -15 0 -24 8 -28
26 -6 22 -11 25 -36 19 -16 -3 -38 -2 -49 4 -16 9 -23 7 -39 -14 -11 -14 -27
-25 -35 -25 -9 0 -25 -19 -36 -45 -11 -25 -27 -45 -35 -45 -10 0 -20 -16 -27
-45 -9 -37 -16 -45 -34 -45 -20 0 -23 -6 -29 -62 -9 -77 -19 -98 -46 -91 -17
5 -20 1 -20 -28 1 -19 7 -52 15 -74 14 -37 14 -41 -5 -53 -19 -14 -19 -15 5
-63 21 -40 23 -52 14 -67 -10 -16 -5 -25 35 -62 25 -23 46 -51 46 -60 0 -11
25 -35 63 -60 34 -23 65 -50 69 -61 7 -17 53 -42 146 -79 40 -16 43 -23 88
-200 19 -74 50 -184 69 -245 19 -60 41 -141 50 -180 8 -38 19 -88 25 -110 5
-22 10 -75 10 -117 0 -79 -10 -113 -67 -238 -61 -133 -203 -493 -203 -516 0
-6 -11 -28 -25 -48 -14 -20 -25 -47 -25 -60 0 -13 -24 -84 -54 -157 -30 -74
-58 -150 -64 -169 -6 -19 -49 -143 -97 -275 -48 -132 -98 -276 -112 -320 -14
-44 -40 -123 -58 -175 -113 -328 -125 -390 -76 -390 34 0 33 -2 146 355 37
116 93 282 125 370 33 88 84 232 115 320 69 199 95 266 109 284 26 34 402 301
423 301 5 0 43 -38 85 -84 77 -84 77 -84 60 -107 -35 -46 -92 -183 -92 -221 0
-5 6 -8 14 -8 12 0 13 -14 9 -75 -5 -65 -4 -75 10 -75 15 0 39 -41 60 -102 4
-10 16 -18 27 -18 11 0 24 -8 27 -17 14 -39 47 -73 70 -73 18 0 27 -9 39 -41
15 -36 19 -39 44 -34 22 5 30 1 44 -20 11 -17 23 -24 33 -21 10 4 26 -3 40
-15 19 -19 23 -20 23 -6 0 9 11 24 25 33 19 12 25 25 25 50 0 27 5 36 24 43
19 8 24 19 30 67 5 42 12 61 28 72 18 13 20 21 14 69 -5 43 -3 55 9 59 17 7
11 42 -16 91 -10 17 -15 40 -12 51 6 25 -8 52 -53 102 -19 21 -34 42 -33 47 4
22 -3 33 -33 51 -45 27 -96 35 -218 33 l-105 -2 -80 81 -80 81 25 19 c35 26
186 110 199 110 6 0 23 -23 37 -52 30 -58 124 -162 168 -185 26 -14 31 -14 41
0 9 12 15 13 30 4 25 -14 151 -46 186 -47 14 0 31 6 38 13 8 8 48 12 124 12
108 0 112 1 109 21 -2 18 4 22 46 28 67 9 88 25 72 56 -13 23 -2 39 27 40 20
0 123 50 123 59 0 5 -12 17 -27 27 l-27 17 74 68 c71 65 73 69 61 93 -13 23
-11 28 34 81 l49 56 -17 29 c-17 28 -17 30 13 74 17 25 35 48 41 51 12 8 12
45 -1 45 -27 0 -6 39 34 64 69 43 67 71 -4 78 -27 2 -35 8 -40 28 -5 22 -11
25 -51 25 -24 -1 -62 -3 -84 -5 -39 -5 -40 -4 -40 25 0 29 -1 30 -50 29 -27
-1 -71 -5 -97 -9 l-47 -7 -9 33 c-9 37 -23 40 -109 24 -37 -6 -44 -5 -49 11
-14 39 -22 43 -69 29 -24 -8 -55 -21 -69 -30 -25 -17 -26 -16 -37 9 -15 32
-24 32 -63 3 -57 -42 -104 -66 -124 -60 -21 5 -62 -30 -122 -104 -19 -24 -42
-43 -51 -43 -19 0 -79 -79 -105 -137 -9 -21 -22 -65 -29 -98 -10 -52 -14 -60
-32 -57 -16 2 -22 -3 -25 -20 -4 -29 29 -173 48 -210 8 -15 14 -31 14 -37 0
-5 -30 -26 -67 -46 -38 -21 -93 -54 -123 -73 -129 -83 -298 -197 -335 -227
-48 -38 -85 -59 -92 -51 -9 8 73 248 113 333 19 39 34 78 34 87 0 8 9 35 20
58 10 24 40 93 65 153 26 61 55 117 66 127 10 9 16 23 13 31 -3 9 22 91 56
184 54 149 65 170 92 186 29 17 30 18 12 31 -18 13 -17 17 8 92 15 44 35 108
44 144 10 36 35 107 56 159 21 52 38 101 38 109 0 8 14 27 30 42 18 17 26 31
20 35 -17 11 -12 32 44 173 30 75 70 184 89 242 19 58 48 141 65 185 16 44 51
139 77 212 38 105 53 133 72 142 19 9 23 16 17 29 -29 59 20 242 75 279 41 28
113 43 207 43 64 0 84 -5 137 -31 34 -18 73 -40 86 -50 13 -11 28 -19 33 -19
14 0 -69 68 -105 86 -16 9 -25 19 -21 24 5 5 59 16 119 25 181 27 268 45 300
62 17 9 62 32 100 51 127 62 232 131 311 204 110 103 163 179 208 294 21 55
42 108 47 119 4 11 21 58 38 105 52 151 123 334 148 384 34 67 130 213 147
223 69 41 157 149 170 211 9 36 -22 144 -56 199 -33 55 -174 178 -243 213 -65
33 -123 41 -174 25 -16 -5 -26 4 -54 48 l-35 54 14 59 c19 83 17 115 -10 146
-48 54 -90 68 -211 68 -137 1 -230 22 -360 81 -22 10 -56 23 -77 29 -20 6 -49
23 -64 37 -61 56 -160 70 -223 32z"/>
    <path d="M2864 8982 l-92 -45 -127 -641 c-70 -353 -168 -843 -217 -1091 -105
-518 -112 -595 -68 -674 33 -59 78 -85 128 -76 30 5 55 26 135 107 53 56 97
107 97 114 0 30 -25 23 -68 -18 -71 -68 -102 -88 -133 -88 -45 0 -69 47 -69
133 0 70 5 97 67 367 19 85 41 182 49 215 15 69 67 297 215 945 22 96 49 213
59 260 10 47 42 184 70 304 28 121 49 223 48 227 -2 3 -44 -14 -94 -39z"/>
    <path d="M1155 8865 c-162 -19 -277 -50 -391 -105 -180 -87 -263 -189 -272
-333 -3 -58 0 -84 19 -132 54 -145 253 -260 483 -281 l71 -6 58 60 c31 33 57
63 57 66 0 3 -26 6 -57 6 -57 0 -180 18 -278 40 -121 26 -215 76 -263 139 -28
37 -32 50 -32 102 0 75 19 121 69 168 135 127 436 174 906 141 247 -17 510
-42 517 -49 5 -4 -31 -24 -80 -44 l-87 -38 -24 -112 c-73 -348 -213 -859 -293
-1069 l-29 -77 -97 -3 -97 -3 -3 -27 -3 -28 85 0 c63 0 86 -3 86 -13 0 -42
-139 -325 -201 -408 -97 -132 -245 -256 -371 -313 -108 -49 -165 -60 -308 -60
-144 -1 -206 12 -348 71 -34 14 -64 24 -66 22 -12 -15 -55 -123 -51 -129 8
-13 130 -37 220 -45 111 -9 309 10 418 41 349 97 626 346 808 724 l53 110 228
0 228 0 0 30 0 30 -216 0 c-202 0 -216 1 -209 18 109 272 218 630 326 1072 34
135 62 246 63 247 2 3 190 -25 286 -42 136 -24 130 -26 173 61 21 42 37 78 35
79 -8 7 -216 37 -379 55 -451 49 -806 61 -1034 35z"/>
    <path d="M8005 8868 c-322 -33 -568 -151 -649 -313 -41 -80 -47 -177 -15 -260
54 -145 252 -260 483 -281 l71 -6 58 61 c31 34 57 63 57 65 0 1 -44 6 -97 10
-166 11 -329 52 -428 109 -21 12 -54 42 -72 65 -30 39 -33 50 -33 109 0 52 5
75 25 109 48 82 151 138 325 177 138 31 535 30 885 -2 138 -12 253 -26 257
-30 4 -4 -32 -24 -80 -45 l-88 -39 -18 -86 c-55 -272 -181 -745 -263 -991
l-58 -175 -100 -5 -100 -5 -3 -27 -3 -28 85 0 c63 0 86 -3 86 -13 0 -17 -58
-154 -105 -247 -86 -171 -238 -342 -381 -428 -224 -134 -486 -146 -747 -33
-27 12 -52 21 -57 21 -10 0 -60 -122 -54 -132 7 -12 137 -36 229 -43 254 -18
542 57 743 194 197 134 379 358 492 609 l33 72 228 0 229 0 0 30 0 30 -216 0
c-202 0 -216 1 -209 18 77 197 149 413 225 681 45 159 150 579 150 602 1 38
12 40 146 19 71 -11 153 -24 183 -30 102 -19 102 -19 144 66 21 42 37 78 35
79 -7 7 -209 37 -373 55 -424 47 -795 61 -1020 38z"/>
    <path d="M14680 8265 c13 -14 26 -25 28 -25 3 0 -5 11 -18 25 -13 14 -26 25
-28 25 -3 0 5 -11 18 -25z"/>
    <path d="M10280 8231 c-24 -12 -39 -30 -49 -57 -12 -35 -12 -44 3 -76 21 -44
73 -72 116 -63 96 21 109 173 18 204 -41 15 -48 14 -88 -8z"/>
    <path d="M4990 7732 c-61 -27 -90 -81 -90 -166 0 -70 40 -149 97 -191 23 -16
42 -37 42 -45 1 -27 -89 -193 -145 -269 -50 -67 -54 -75 -40 -89 9 -9 17 -14
20 -11 2 2 28 39 59 81 64 90 119 187 136 241 l13 37 67 0 c81 0 150 19 196
55 19 14 35 24 35 20 0 -3 -29 -49 -63 -103 -119 -183 -220 -374 -262 -497
-20 -57 -31 -177 -21 -229 9 -47 65 -103 111 -112 76 -14 186 41 306 154 54
51 62 62 51 75 -12 14 -23 8 -91 -47 -43 -35 -99 -71 -124 -81 -43 -16 -48
-16 -71 -1 -42 27 -52 82 -33 180 30 152 101 343 218 584 44 89 79 164 79 165
0 1 -17 2 -37 2 -22 0 -66 -14 -102 -33 -64 -32 -131 -41 -188 -26 -22 6 -23
9 -17 88 8 104 -5 155 -51 195 -35 30 -63 37 -95 23z m71 -98 c20 -21 24 -38
27 -100 4 -80 0 -86 -44 -58 -29 20 -74 92 -74 120 0 28 28 64 49 64 10 0 28
-12 42 -26z"/>
    <path d="M9237 7719 c-43 -33 -60 -75 -59 -150 0 -83 23 -131 93 -192 l51 -44
-36 -77 c-19 -43 -65 -120 -101 -172 -36 -51 -65 -98 -65 -103 0 -5 7 -11 15
-14 27 -11 185 230 219 336 4 14 17 17 74 17 77 0 137 17 197 57 l39 26 -19
-29 c-149 -224 -275 -457 -315 -584 -51 -159 -31 -279 54 -320 23 -11 54 -20
69 -20 67 0 168 60 292 173 46 41 49 47 34 62 -14 14 -20 11 -72 -34 -64 -56
-128 -96 -169 -106 -22 -6 -33 -1 -58 23 -24 25 -30 39 -30 76 0 137 115 468
255 734 57 108 57 103 0 107 -11 1 -43 -12 -72 -28 -56 -31 -137 -44 -197 -33
-36 7 -37 7 -29 44 14 64 8 164 -11 200 -20 38 -70 72 -106 72 -14 -1 -38 -10
-53 -21z m102 -85 c24 -30 36 -99 27 -150 l-7 -36 -32 25 c-66 50 -93 118 -67
168 15 27 55 24 79 -7z"/>
    <path d="M3991 7496 c-43 -19 -78 -40 -83 -52 -9 -22 -97 -475 -129 -664 -26
-155 -18 -209 39 -269 103 -109 276 -71 440 96 l82 84 0 -36 c0 -66 21 -126
60 -166 65 -69 121 -50 243 83 45 49 83 95 85 103 7 32 -23 25 -66 -17 -102
-97 -150 -111 -185 -51 -22 39 -25 130 -7 219 6 32 50 202 97 377 46 176 83
321 81 323 -6 5 -151 -56 -164 -70 -6 -6 -19 -56 -28 -111 -10 -55 -26 -145
-36 -200 -10 -55 -29 -156 -41 -225 -25 -139 -37 -164 -135 -269 -63 -68 -156
-121 -213 -121 -46 0 -99 27 -125 63 -38 52 -28 123 78 544 53 210 96 384 96
387 0 9 -10 6 -89 -28z"/>
    <path d="M10181 7495 c-41 -18 -77 -39 -81 -46 -5 -8 -15 -57 -24 -109 -9 -52
-30 -169 -46 -260 -61 -335 -72 -414 -65 -464 16 -126 94 -191 180 -151 36 18
197 184 203 210 8 34 -24 21 -84 -34 -90 -85 -135 -93 -167 -31 -15 29 -17 51
-14 130 4 79 21 152 96 434 50 186 91 343 91 347 0 13 -7 11 -89 -26z"/>
    <path d="M3275 7502 c-142 -51 -294 -209 -381 -398 -174 -377 -24 -696 308
-654 121 15 257 102 360 232 27 34 29 41 17 54 -13 12 -23 5 -77 -51 -143
-147 -258 -187 -379 -131 -84 39 -143 143 -143 250 l0 41 101 44 c200 87 373
225 434 348 22 44 29 73 29 120 1 66 -14 97 -67 137 -38 28 -136 32 -202 8z
m149 -55 c42 -50 -6 -198 -103 -315 -67 -81 -140 -137 -252 -197 l-90 -47 6
38 c36 207 138 406 262 508 57 47 142 53 177 13z"/>
    <path d="M6035 7506 c-96 -24 -185 -89 -235 -171 -31 -52 -34 -66 -34 -130 0
-64 3 -78 29 -116 17 -23 88 -92 158 -152 79 -68 135 -124 147 -148 64 -125
-46 -269 -205 -269 -92 0 -170 49 -222 138 l-27 45 -48 -53 c-26 -30 -48 -59
-48 -66 0 -17 82 -89 132 -116 37 -19 58 -23 143 -22 90 0 106 3 158 29 81 39
160 114 194 183 22 47 28 71 28 132 0 65 -4 81 -28 122 -29 49 -95 114 -204
201 -82 66 -113 113 -113 172 0 39 6 51 40 89 110 119 296 69 339 -93 l7 -24
28 25 c24 20 30 34 34 82 4 56 4 57 -36 95 -60 57 -135 72 -237 47z"/>
    <path d="M10905 7502 c-146 -51 -313 -231 -395 -428 -114 -273 -63 -511 127
-601 69 -32 202 -35 279 -6 92 36 200 120 276 216 25 31 28 40 18 52 -11 13
-24 4 -92 -64 -92 -93 -163 -133 -249 -139 -142 -10 -259 113 -259 273 0 41 1
42 58 65 279 113 477 289 507 453 28 146 -107 236 -270 179z m149 -54 c46 -56
-14 -221 -124 -341 -64 -69 -152 -133 -257 -186 l-62 -31 6 38 c22 156 113
355 209 457 87 93 181 119 228 63z"/>
    <path d="M11745 7506 c-150 -38 -259 -150 -272 -280 -11 -102 25 -155 204
-303 59 -49 115 -105 129 -128 43 -75 27 -153 -46 -219 -59 -53 -146 -70 -234
-45 -47 13 -121 79 -148 133 l-21 41 -48 -55 c-27 -29 -49 -59 -49 -65 0 -18
82 -92 130 -116 31 -15 69 -24 120 -27 202 -12 390 140 407 329 4 43 1 66 -16
104 -32 73 -61 106 -184 209 -146 123 -172 168 -141 245 17 44 60 81 113 99
102 35 211 -17 249 -120 l19 -50 28 24 c40 35 46 109 13 157 -44 65 -151 94
-253 67z"/>
  </g>
</svg>
